<mxfile host="Electron" agent="Mozilla/5.0 (X11; Linux x86_64) AppleWebKit/537.36 (KHTML, like Gecko) draw.io/24.7.17 Chrome/128.0.6613.36 Electron/32.0.1 Safari/537.36" version="24.7.17">
  <diagram id="ys3xKlb_GsDn074I-htH" name="cnt1">
    <mxGraphModel dx="647" dy="1628" grid="1" gridSize="10" guides="1" tooltips="1" connect="1" arrows="1" fold="1" page="1" pageScale="1" pageWidth="827" pageHeight="1169" math="0" shadow="0">
      <root>
        <mxCell id="0" />
        <mxCell id="1" parent="0" />
        <mxCell id="LoJj16agNr5JCMr-KZ_k-8" value="&lt;b&gt;pre_stage_unit&lt;/b&gt;" style="rounded=0;whiteSpace=wrap;html=1;dashed=1;dashPattern=8 8;fillColor=#E6E6E6;" parent="1" vertex="1">
          <mxGeometry x="10" y="130" width="600" height="260" as="geometry" />
        </mxCell>
        <mxCell id="eJ2dMlPmiUjp7UvfucFv-4" value="" style="shape=flexArrow;endArrow=classic;html=1;rounded=0;fillColor=#8A8A8A;strokeColor=none;entryX=0.75;entryY=0;entryDx=0;entryDy=0;" parent="1" target="eJ2dMlPmiUjp7UvfucFv-14" edge="1">
          <mxGeometry width="50" height="50" relative="1" as="geometry">
            <mxPoint x="365" y="80" as="sourcePoint" />
            <mxPoint x="320" y="160" as="targetPoint" />
          </mxGeometry>
        </mxCell>
        <mxCell id="eJ2dMlPmiUjp7UvfucFv-7" value="WORD COUNTER" style="rounded=0;whiteSpace=wrap;html=1;fontStyle=1;" parent="1" vertex="1">
          <mxGeometry x="70" y="240" width="120" height="60" as="geometry" />
        </mxCell>
        <mxCell id="eJ2dMlPmiUjp7UvfucFv-8" value="" style="endArrow=classic;html=1;rounded=0;exitX=0.25;exitY=1;exitDx=0;exitDy=0;entryX=0.25;entryY=0;entryDx=0;entryDy=0;" parent="1" source="eJ2dMlPmiUjp7UvfucFv-7" target="eJ2dMlPmiUjp7UvfucFv-7" edge="1">
          <mxGeometry width="50" height="50" relative="1" as="geometry">
            <mxPoint x="160" y="350" as="sourcePoint" />
            <mxPoint x="130" y="380" as="targetPoint" />
            <Array as="points">
              <mxPoint x="100" y="320" />
              <mxPoint x="90" y="320" />
              <mxPoint x="40" y="320" />
              <mxPoint x="40" y="200" />
              <mxPoint x="100" y="200" />
            </Array>
          </mxGeometry>
        </mxCell>
        <mxCell id="eJ2dMlPmiUjp7UvfucFv-14" value="&lt;font style=&quot;font-size: 17px;&quot;&gt;BIT COUNTER&lt;/font&gt;" style="rounded=0;whiteSpace=wrap;html=1;fontStyle=1;fillColor=#dae8fc;strokeColor=#6c8ebf;" parent="1" vertex="1">
          <mxGeometry x="230" y="240" width="180" height="60" as="geometry" />
        </mxCell>
        <mxCell id="eJ2dMlPmiUjp7UvfucFv-16" value="" style="endArrow=classic;html=1;rounded=0;" parent="1" edge="1">
          <mxGeometry width="50" height="50" relative="1" as="geometry">
            <mxPoint x="130" y="320" as="sourcePoint" />
            <mxPoint x="130" y="320" as="targetPoint" />
          </mxGeometry>
        </mxCell>
        <mxCell id="eJ2dMlPmiUjp7UvfucFv-21" value="" style="endArrow=classic;html=1;rounded=0;entryX=0.25;entryY=0;entryDx=0;entryDy=0;" parent="1" source="eJ2dMlPmiUjp7UvfucFv-18" target="eJ2dMlPmiUjp7UvfucFv-14" edge="1">
          <mxGeometry width="50" height="50" relative="1" as="geometry">
            <mxPoint x="200" y="200" as="sourcePoint" />
            <mxPoint x="210" y="190" as="targetPoint" />
            <Array as="points">
              <mxPoint x="275" y="155" />
            </Array>
          </mxGeometry>
        </mxCell>
        <mxCell id="eJ2dMlPmiUjp7UvfucFv-18" value="" style="shape=waypoint;sketch=0;fillStyle=solid;size=6;pointerEvents=1;points=[];fillColor=none;resizable=0;rotatable=0;perimeter=centerPerimeter;snapToPoint=1;" parent="1" vertex="1">
          <mxGeometry x="190" y="145" width="20" height="20" as="geometry" />
        </mxCell>
        <mxCell id="eJ2dMlPmiUjp7UvfucFv-23" value="" style="shape=flexArrow;endArrow=classic;html=1;rounded=0;fillColor=#8A8A8A;strokeColor=none;entryX=0.5;entryY=0;entryDx=0;entryDy=0;" parent="1" target="eJ2dMlPmiUjp7UvfucFv-25" edge="1">
          <mxGeometry width="50" height="50" relative="1" as="geometry">
            <mxPoint x="360" y="160" as="sourcePoint" />
            <mxPoint x="440" y="280" as="targetPoint" />
            <Array as="points">
              <mxPoint x="520" y="160" />
            </Array>
          </mxGeometry>
        </mxCell>
        <mxCell id="eJ2dMlPmiUjp7UvfucFv-25" value="&lt;font style=&quot;font-size: 16px;&quot;&gt;VECTOR SHIFTREG&lt;/font&gt;" style="rounded=0;whiteSpace=wrap;html=1;fontStyle=1;" parent="1" vertex="1">
          <mxGeometry x="460" y="225" width="120" height="90" as="geometry" />
        </mxCell>
        <mxCell id="eJ2dMlPmiUjp7UvfucFv-28" value="" style="shape=flexArrow;endArrow=classic;html=1;rounded=0;fillColor=#8A8A8A;strokeColor=none;exitX=0.5;exitY=1;exitDx=0;exitDy=0;" parent="1" source="eJ2dMlPmiUjp7UvfucFv-14" edge="1">
          <mxGeometry width="50" height="50" relative="1" as="geometry">
            <mxPoint x="365" y="430" as="sourcePoint" />
            <mxPoint x="320" y="480" as="targetPoint" />
            <Array as="points" />
          </mxGeometry>
        </mxCell>
        <mxCell id="eJ2dMlPmiUjp7UvfucFv-31" value="o_Cnt" style="edgeLabel;html=1;align=center;verticalAlign=middle;resizable=0;points=[];fontStyle=1" parent="eJ2dMlPmiUjp7UvfucFv-28" vertex="1" connectable="0">
          <mxGeometry x="-0.1079" y="-3" relative="1" as="geometry">
            <mxPoint x="-26" y="30" as="offset" />
          </mxGeometry>
        </mxCell>
        <mxCell id="eJ2dMlPmiUjp7UvfucFv-30" value="" style="shape=flexArrow;endArrow=classic;html=1;rounded=0;fillColor=#8A8A8A;strokeColor=none;exitX=0.25;exitY=1;exitDx=0;exitDy=0;" parent="1" source="eJ2dMlPmiUjp7UvfucFv-25" edge="1">
          <mxGeometry width="50" height="50" relative="1" as="geometry">
            <mxPoint x="460" y="420" as="sourcePoint" />
            <mxPoint x="490" y="480" as="targetPoint" />
          </mxGeometry>
        </mxCell>
        <mxCell id="eJ2dMlPmiUjp7UvfucFv-32" value="o_SubVector" style="edgeLabel;html=1;align=center;verticalAlign=middle;resizable=0;points=[];fontStyle=1" parent="eJ2dMlPmiUjp7UvfucFv-30" vertex="1" connectable="0">
          <mxGeometry x="-0.3175" relative="1" as="geometry">
            <mxPoint x="-50" y="39" as="offset" />
          </mxGeometry>
        </mxCell>
        <mxCell id="eJ2dMlPmiUjp7UvfucFv-33" value="" style="endArrow=classic;startArrow=classic;html=1;rounded=0;" parent="1" edge="1">
          <mxGeometry width="50" height="50" relative="1" as="geometry">
            <mxPoint x="450" y="315" as="sourcePoint" />
            <mxPoint x="450" y="225" as="targetPoint" />
          </mxGeometry>
        </mxCell>
        <mxCell id="eJ2dMlPmiUjp7UvfucFv-47" value="" style="endArrow=classic;html=1;rounded=0;exitX=0.5;exitY=1;exitDx=0;exitDy=0;" parent="1" edge="1" source="LgvBznyvPYM-MgRUdSKz-7">
          <mxGeometry width="50" height="50" relative="1" as="geometry">
            <mxPoint x="160" y="370" as="sourcePoint" />
            <mxPoint x="160" y="480" as="targetPoint" />
          </mxGeometry>
        </mxCell>
        <mxCell id="eJ2dMlPmiUjp7UvfucFv-48" value="o_CntNew" style="edgeLabel;html=1;align=center;verticalAlign=middle;resizable=0;points=[];fontStyle=1" parent="eJ2dMlPmiUjp7UvfucFv-47" vertex="1" connectable="0">
          <mxGeometry x="-0.4226" y="1" relative="1" as="geometry">
            <mxPoint x="-41" y="1" as="offset" />
          </mxGeometry>
        </mxCell>
        <mxCell id="LoJj16agNr5JCMr-KZ_k-1" value="&lt;font style=&quot;font-size: 16px;&quot;&gt;VECTOR CONCATENATOR&lt;/font&gt;" style="rounded=0;whiteSpace=wrap;html=1;fontStyle=1;fillColor=#dae8fc;strokeColor=#6c8ebf;" parent="1" vertex="1">
          <mxGeometry x="170" y="20" width="230" height="60" as="geometry" />
        </mxCell>
        <mxCell id="LoJj16agNr5JCMr-KZ_k-2" value="" style="shape=flexArrow;endArrow=classic;html=1;rounded=0;fillColor=#8A8A8A;strokeColor=none;entryX=0.75;entryY=0;entryDx=0;entryDy=0;" parent="1" edge="1">
          <mxGeometry width="50" height="50" relative="1" as="geometry">
            <mxPoint x="360" y="-60" as="sourcePoint" />
            <mxPoint x="360" y="20" as="targetPoint" />
          </mxGeometry>
        </mxCell>
        <mxCell id="LoJj16agNr5JCMr-KZ_k-6" value="" style="endArrow=classic;html=1;rounded=0;" parent="1" edge="1">
          <mxGeometry width="50" height="50" relative="1" as="geometry">
            <mxPoint x="200" y="-60" as="sourcePoint" />
            <mxPoint x="199.57999999999998" y="20" as="targetPoint" />
          </mxGeometry>
        </mxCell>
        <mxCell id="LoJj16agNr5JCMr-KZ_k-9" value="&lt;b&gt;&lt;font style=&quot;font-size: 22px;&quot;&gt;CNT1&lt;/font&gt;&lt;/b&gt;" style="text;html=1;align=center;verticalAlign=middle;resizable=0;points=[];autosize=1;strokeColor=none;fillColor=none;" parent="1" vertex="1">
          <mxGeometry y="125" width="80" height="40" as="geometry" />
        </mxCell>
        <mxCell id="eAeZRivgrk2iDV7gSjHu-1" value="" style="endArrow=classic;html=1;rounded=0;exitX=0.75;exitY=1;exitDx=0;exitDy=0;" parent="1" source="eJ2dMlPmiUjp7UvfucFv-25" edge="1">
          <mxGeometry width="50" height="50" relative="1" as="geometry">
            <mxPoint x="260" y="310" as="sourcePoint" />
            <mxPoint x="550" y="480" as="targetPoint" />
          </mxGeometry>
        </mxCell>
        <mxCell id="eAeZRivgrk2iDV7gSjHu-4" value="&lt;b&gt;o_Valid&lt;/b&gt;" style="edgeLabel;html=1;align=center;verticalAlign=middle;resizable=0;points=[];" parent="eAeZRivgrk2iDV7gSjHu-1" vertex="1" connectable="0">
          <mxGeometry x="0.0667" relative="1" as="geometry">
            <mxPoint x="30" y="7" as="offset" />
          </mxGeometry>
        </mxCell>
        <mxCell id="eAeZRivgrk2iDV7gSjHu-5" value="&lt;b&gt;w_LastWordOfVector&lt;/b&gt;" style="text;html=1;align=center;verticalAlign=middle;resizable=0;points=[];autosize=1;strokeColor=none;fillColor=none;rotation=-90;" parent="1" vertex="1">
          <mxGeometry x="-40" y="245" width="140" height="30" as="geometry" />
        </mxCell>
        <mxCell id="eAeZRivgrk2iDV7gSjHu-6" value="&lt;b&gt;DELAY&lt;/b&gt;" style="text;html=1;align=center;verticalAlign=middle;resizable=0;points=[];autosize=1;strokeColor=none;fillColor=none;rotation=-90;" parent="1" vertex="1">
          <mxGeometry x="410" y="255" width="60" height="30" as="geometry" />
        </mxCell>
        <mxCell id="LgvBznyvPYM-MgRUdSKz-1" value="" style="rounded=0;whiteSpace=wrap;html=1;" vertex="1" parent="1">
          <mxGeometry x="140" y="190" width="40" height="10" as="geometry" />
        </mxCell>
        <mxCell id="LgvBznyvPYM-MgRUdSKz-2" value="" style="endArrow=classic;html=1;rounded=0;entryX=0.75;entryY=0;entryDx=0;entryDy=0;exitX=0.5;exitY=1;exitDx=0;exitDy=0;" edge="1" parent="1" source="LgvBznyvPYM-MgRUdSKz-1" target="eJ2dMlPmiUjp7UvfucFv-7">
          <mxGeometry width="50" height="50" relative="1" as="geometry">
            <mxPoint x="330" y="300" as="sourcePoint" />
            <mxPoint x="380" y="250" as="targetPoint" />
          </mxGeometry>
        </mxCell>
        <mxCell id="LgvBznyvPYM-MgRUdSKz-3" value="" style="endArrow=classic;html=1;rounded=0;entryX=0.5;entryY=0;entryDx=0;entryDy=0;" edge="1" parent="1" source="eJ2dMlPmiUjp7UvfucFv-18" target="LgvBznyvPYM-MgRUdSKz-1">
          <mxGeometry width="50" height="50" relative="1" as="geometry">
            <mxPoint x="330" y="300" as="sourcePoint" />
            <mxPoint x="380" y="250" as="targetPoint" />
            <Array as="points">
              <mxPoint x="160" y="155" />
            </Array>
          </mxGeometry>
        </mxCell>
        <mxCell id="LgvBznyvPYM-MgRUdSKz-5" value="" style="endArrow=none;html=1;rounded=0;entryX=0.13;entryY=1.002;entryDx=0;entryDy=0;entryPerimeter=0;" edge="1" parent="1" source="eJ2dMlPmiUjp7UvfucFv-18" target="LoJj16agNr5JCMr-KZ_k-1">
          <mxGeometry width="50" height="50" relative="1" as="geometry">
            <mxPoint x="220" y="170" as="sourcePoint" />
            <mxPoint x="270" y="120" as="targetPoint" />
          </mxGeometry>
        </mxCell>
        <mxCell id="LgvBznyvPYM-MgRUdSKz-6" value="" style="rounded=0;whiteSpace=wrap;html=1;" vertex="1" parent="1">
          <mxGeometry x="140" y="320" width="40" height="10" as="geometry" />
        </mxCell>
        <mxCell id="LgvBznyvPYM-MgRUdSKz-7" value="" style="rounded=0;whiteSpace=wrap;html=1;" vertex="1" parent="1">
          <mxGeometry x="140" y="370" width="40" height="10" as="geometry" />
        </mxCell>
        <mxCell id="LgvBznyvPYM-MgRUdSKz-8" value="" style="shape=waypoint;sketch=0;fillStyle=solid;size=6;pointerEvents=1;points=[];fillColor=none;resizable=0;rotatable=0;perimeter=centerPerimeter;snapToPoint=1;" vertex="1" parent="1">
          <mxGeometry x="150" y="350" width="20" height="20" as="geometry" />
        </mxCell>
        <mxCell id="LgvBznyvPYM-MgRUdSKz-9" value="" style="shape=waypoint;sketch=0;fillStyle=solid;size=6;pointerEvents=1;points=[];fillColor=none;resizable=0;rotatable=0;perimeter=centerPerimeter;snapToPoint=1;" vertex="1" parent="1">
          <mxGeometry x="150" y="340" width="20" height="20" as="geometry" />
        </mxCell>
        <mxCell id="LgvBznyvPYM-MgRUdSKz-10" value="" style="shape=waypoint;sketch=0;fillStyle=solid;size=6;pointerEvents=1;points=[];fillColor=none;resizable=0;rotatable=0;perimeter=centerPerimeter;snapToPoint=1;" vertex="1" parent="1">
          <mxGeometry x="150" y="330" width="20" height="20" as="geometry" />
        </mxCell>
        <mxCell id="LgvBznyvPYM-MgRUdSKz-11" value="" style="endArrow=classic;html=1;rounded=0;exitX=0.75;exitY=1;exitDx=0;exitDy=0;entryX=0.5;entryY=0;entryDx=0;entryDy=0;" edge="1" parent="1" source="eJ2dMlPmiUjp7UvfucFv-7" target="LgvBznyvPYM-MgRUdSKz-6">
          <mxGeometry width="50" height="50" relative="1" as="geometry">
            <mxPoint x="220" y="370" as="sourcePoint" />
            <mxPoint x="270" y="320" as="targetPoint" />
          </mxGeometry>
        </mxCell>
        <mxCell id="LgvBznyvPYM-MgRUdSKz-13" value="&lt;b&gt;DELAY&lt;/b&gt;" style="text;html=1;align=center;verticalAlign=middle;resizable=0;points=[];autosize=1;strokeColor=none;fillColor=none;rotation=-90;" vertex="1" parent="1">
          <mxGeometry x="90" y="335" width="60" height="30" as="geometry" />
        </mxCell>
        <mxCell id="LgvBznyvPYM-MgRUdSKz-14" value="" style="endArrow=classic;startArrow=classic;html=1;rounded=0;" edge="1" parent="1">
          <mxGeometry width="50" height="50" relative="1" as="geometry">
            <mxPoint x="130" y="380" as="sourcePoint" />
            <mxPoint x="129.76" y="320" as="targetPoint" />
          </mxGeometry>
        </mxCell>
        <mxCell id="LgvBznyvPYM-MgRUdSKz-15" value="&lt;b&gt;i_Valid&lt;/b&gt;" style="text;html=1;align=center;verticalAlign=middle;resizable=0;points=[];autosize=1;strokeColor=none;fillColor=none;" vertex="1" parent="1">
          <mxGeometry x="140" y="100" width="60" height="30" as="geometry" />
        </mxCell>
        <mxCell id="LgvBznyvPYM-MgRUdSKz-16" value="&lt;b&gt;i_Valid&lt;/b&gt;" style="text;html=1;align=center;verticalAlign=middle;resizable=0;points=[];autosize=1;strokeColor=none;fillColor=none;" vertex="1" parent="1">
          <mxGeometry x="140" y="-30" width="60" height="30" as="geometry" />
        </mxCell>
        <mxCell id="LgvBznyvPYM-MgRUdSKz-17" value="&lt;b&gt;i_Vector&lt;/b&gt;" style="text;html=1;align=center;verticalAlign=middle;resizable=0;points=[];autosize=1;strokeColor=none;fillColor=none;" vertex="1" parent="1">
          <mxGeometry x="295" y="100" width="70" height="30" as="geometry" />
        </mxCell>
        <mxCell id="LgvBznyvPYM-MgRUdSKz-18" value="&lt;b&gt;i_Vector&lt;/b&gt;" style="text;html=1;align=center;verticalAlign=middle;resizable=0;points=[];autosize=1;strokeColor=none;fillColor=none;" vertex="1" parent="1">
          <mxGeometry x="285" y="-30" width="70" height="30" as="geometry" />
        </mxCell>
      </root>
    </mxGraphModel>
  </diagram>
</mxfile>
